HIERARCHY
ROOT ui
{
	 OFFSET 0 0 0
	 CHANNELS 3 XPosition YPosition Z Position
	 EndSite
	 {
	 OFFSET 0 -1 0
	 }
}
ROOT li
{
	 OFFSET 0 0 0
	 CHANNELS 3 XPosition YPosition Z Position
	 EndSite
	 {
	 OFFSET 0 -1 0
	 }
}
ROOT ul
{
	 OFFSET 0 0 0
	 CHANNELS 3 XPosition YPosition Z Position
	 EndSite
	 {
	 OFFSET 0 -1 0
	 }
}
ROOT ll
{
	 OFFSET 0 0 0
	 CHANNELS 3 XPosition YPosition Z Position
	 EndSite
	 {
	 OFFSET 0 -1 0
	 }
}
ROOT tt
{
	 OFFSET 0 0 0
	 CHANNELS 3 XPosition YPosition Z Position
	 EndSite
	 {
	 OFFSET 0 -1 0
	 }
}
ROOT tb
{
	 OFFSET 0 0 0
	 CHANNELS 3 XPosition YPosition Z Position
	 EndSite
	 {
	 OFFSET 0 -1 0
	 }
}
ROOT td
{
	 OFFSET 0 0 0
	 CHANNELS 3 XPosition YPosition Z Position
	 EndSite
	 {
	 OFFSET 0 -1 0
	 }
}
ROOT v
{
	 OFFSET 0 0 0
	 CHANNELS 3 XPosition YPosition Z Position
	 EndSite
	 {
	 OFFSET 0 -1 0
	 }
}
ROOT bn
{
	 OFFSET 0 0 0
	 CHANNELS 3 XPosition YPosition Z Position
	 EndSite
	 {
	 OFFSET 0 -1 0
	 }
}
MOTION
Frames: 10
Frame Time: 0.002
0.05808663558959961	-0.008419615745544434	0		0.4049563903808594	-2.357483642578125	0		-0.8003093872070313	0.52118896484375	0		-0.734110107421875	-2.70702685546875	0		1.574355224609375	-0.5810256958007812	0		3.188123779296875	-9.225069880485535E-4	0		4.25144970703125	0.2844584045410156	0		5.9874013671875	0.4155806884765625	0		-0.2099993896484375	5.89242138671875	0		
-0.043723770141601566	-1.9291399419307708E-4	0		0.35914920043945314	-2.357422119140625	0		-0.8711412963867188	0.5243118286132813	0		-0.6838863525390625	-2.698269287109375	0		1.5725540771484374	-0.5720835571289062	0		3.14631005859375	0.0061596360206604	0		4.236587890625	0.27746914672851564	0		5.99158544921875	0.42355670166015624	0		-0.1748860321044922	5.89823095703125	0		
0.011450374603271484	-0.0014525610208511353	0		0.3543963623046875	-2.345495361328125	0		-0.7889567260742187	0.5289590454101563	0		-0.7575949096679687	-2.67314990234375	0		1.5727396240234375	-0.5721546020507813	0		3.150400146484375	-0.02290087890625	0		4.23171435546875	0.26244833374023435	0		5.9917568359375	0.4235486755371094	0		-0.13977484130859374	5.904029296875	0		
-0.043364322662353516	-3.9269599318504336E-4	0		0.38160281372070315	-2.35067529296875	0		-0.7998074951171875	0.520873779296875	0		-0.68834716796875	-2.66647412109375	0		1.5669493408203126	-0.5662151489257813	0		3.1555615234375	-0.029967697143554687	0		4.22684765625	0.24842633056640626	0		6.000931640625	0.4235177001953125	0		-0.13969224548339843	5.903921875	0		
0.011814498901367187	-0.0016735810041427612	0		0.38183023071289063	-2.350784423828125	0		-0.799635498046875	0.5207418823242187	0		-0.73006298828125	-2.64947900390625	0		1.5621571044921876	-0.5612865600585938	0		3.133687744140625	-0.04895779037475586	0		4.2270009765625	0.2413875732421875	0		5.98812939453125	0.4315556335449219	0		-0.15565678405761718	5.8928505859375	0		
-0.019013200759887695	-0.004709592819213867	0		0.4100552978515625	-2.352986572265625	0		-0.7944804077148437	0.515582275390625	0		-0.6957931518554688	-2.638722900390625	0		1.55934130859375	-0.5643721923828126	0		3.144825439453125	-0.06405119323730468	0		4.24312939453125	0.2262984619140625	0		5.99227734375	0.42354373168945314	0		-0.18962196350097657	5.88581982421875	0		
0.012176890373229981	-0.0019392199516296386	0		0.35731680297851565	-2.34396044921875	0		-0.855298828125	0.5196044921875	0		-0.7635133666992188	-2.625677978515625	0		1.559535400390625	-0.5644750366210938	0		3.161943603515625	-0.08616767120361328	0		4.24827880859375	0.21823751831054689	0		6.0064697265625	0.430500732421875	0		-0.20656869506835937	5.88772705078125	0		
-0.011627135276794433	0.0019832919836044313	0		0.41955914306640624	-2.34327978515625	0		-0.7791243286132813	0.5202158813476563	0		-0.674244140625	-2.61810205078125	0		1.56274169921875	-0.5615943603515625	0		3.147156005859375	-0.07719673919677734	0		4.25341357421875	0.20417141723632812	0		5.997646484375	0.43152163696289064	0		-0.20851811218261718	5.88958056640625	0		
0.011574264526367187	0.005761754035949707	0		0.350832275390625	-2.3342255859375	0		-0.7889728393554688	0.5110708618164063	0		-0.6929414672851563	-2.60121875	0		1.559936767578125	-0.5647026977539062	0		3.11323291015625	-0.11717713165283203	0		4.2535517578125	0.18911495971679687	0		5.99280322265625	0.4235267639160156	0		-0.1534684295654297	5.89026171875	0		
-0.014246869087219238	-0.001324692964553833	0		0.41404290771484376	-2.350557861328125	0		-0.7887865600585937	0.5108903198242187	0		-0.7646522827148438	-2.59219140625	0		1.554126708984375	-0.5728080444335938	0		3.13741455078125	-0.12432979583740235	0		4.2746767578125	0.165994140625	0		5.9929912109375	0.4235137939453125	0		-0.20346343994140625	5.87323974609375	0		
